<?xml version="1.0" encoding="UTF-8"?><svg id="Layer_2" xmlns="http://www.w3.org/2000/svg" viewBox="0 0 66.9 22.19"><defs><style>.cls-1{fill:#f89420;}.cls-2{fill:#d71f2e;}.cls-3{fill:#065ca9;}</style></defs><g id="Layer_1-2"><g><path class="cls-3" d="M55.81,0c-6.12,0-11.09,4.98-11.09,11.09,0,6.12,4.98,11.09,11.09,11.09s11.09-4.98,11.09-11.09C66.9,4.98,61.92,0,55.81,0Zm0,17.76c-3.67,0-6.66-2.99-6.66-6.66s2.99-6.66,6.66-6.66c3.67,0,6.66,2.99,6.66,6.66,0,3.67-2.99,6.66-6.66,6.66Z"/><path class="cls-2" d="M11.09,0C4.98,0,0,4.98,0,11.09s4.98,11.09,11.09,11.09,11.09-4.98,11.09-11.09S17.21,0,11.09,0Zm0,17.76c-3.67,0-6.66-2.99-6.66-6.66s2.99-6.66,6.66-6.66,6.66,2.99,6.66,6.66-2.99,6.66-6.66,6.66Z"/><path class="cls-1" d="M43.24,0H25.72c-.44,0-.79,.35-.79,.79V21.37c0,.44,.35,.79,.79,.79h17.52c.76,0,1.08-.96,.48-1.42l-11.89-9.03c-.42-.32-.42-.94,0-1.26L43.72,1.42C44.32,.96,44,0,43.24,0Z"/></g></g></svg>